<?xml version="1.0" encoding="UTF-8"?>
<svg id="Layer_1" xmlns="http://www.w3.org/2000/svg" version="1.1" viewBox="0 0 2500 2100">
  <!-- Generator: Adobe Illustrator 29.3.0, SVG Export Plug-In . SVG Version: 2.1.0 Build 146)  -->
  <defs>
    <style>
      .st0 {
        fill: #1d91b4;
      }

      .st0, .st1, .st2, .st3, .st4, .st5, .st6, .st7, .st8 {
        fill-rule: evenodd;
      }

      .st1 {
        fill: #37b1d9;
      }

      .st2 {
        fill: #e5e7eb;
      }

      .st3 {
        fill: #bdd9d7;
      }

      .st4 {
        fill: #1b81a5;
      }

      .st5 {
        fill: #34bbde;
      }

      .st6 {
        fill: #22a0c8;
      }

      .st7 {
        fill: #23a3c2;
      }

      .st8 {
        fill: #d3ecec;
      }
    </style>
  </defs>
  <path class="st2" d="M377.1,1699.3v-159.8c0-21,13.1-37.9,34.9-37.9h6c21.7,0,34.8,16.9,34.8,37.9v336.4c0,82-40.5,147.3-111.2,188.9-32.4,19.2-69.3,29.2-106.9,29.2h-15c-82.1,0-147.2-40.6-188.9-111.1-19.2-32.3-29.3-69.3-29.1-106.9v-15c0-82.1,40.5-147.3,111.1-189,32.3-19.2,69.3-29.3,106.9-29.2h15c55.5,0,102.6,21.5,142.4,56.5h0ZM77.4,1868.4c0,59.3,28.7,103.8,80.6,132.2,21,11.5,43.8,17.7,67.7,17.7,58.2,0,101.3-27.4,131.1-76.7,13.8-22.9,20.3-48,20.3-74.7,0-51.4-24.3-91.5-65.7-121.2-25.1-18-53.3-27.1-84.2-27.1-63.4,0-109,32-136.4,88.9-9.2,19.2-13.5,39.7-13.5,60.9h0ZM715.3,1642.8h10.5c87.7,0,154.4,42.5,196.6,119.1,16.9,30.6,25.9,64,25.9,99v15c0,82-40.4,147.4-111.2,188.9-32.7,19.2-68.9,29.1-106.9,29.1h-15c-82.1,0-147.3-40.6-188.9-111.1-19.2-32.3-29.3-69.3-29.2-106.9v-15c0-82.1,40.7-147.1,111.1-188.9,32.7-19.4,68.9-29.2,107-29.2h0ZM572.9,1868.4c0,57.5,28.2,99.8,76.8,129.6,22.8,14,47.9,20.3,74.6,20.3,56.8,0,98.8-28.8,128.1-76.8,13.9-22.9,20.3-48,20.3-74.6,0-53.5-25.8-94.3-69.8-124-24.1-16.2-51-24.4-80.1-24.4-63.4,0-109,32-136.4,88.9-9.3,19.2-13.5,39.7-13.5,60.9h0ZM1262.9,1724.5c-11.4-5.4-32.8-7.1-45.2-7.6-63.2-2.4-109,33.2-135.8,89-9.3,19.2-13.5,39.6-13.5,60.9,0,64.8,34,110.2,91.9,137.9,21.1,10.1,48.4,12,71.5,12s49-12.4,67.1-21l3.1-1.5h14l1.5.3c17.2,3.6,30.2,14.5,30.2,33v7.5c0,46.1-84.2,56.6-116.3,58.9-113.4,7.8-198.2-54.4-230.5-162.6-5.6-18.8-8.1-37.4-8.1-57v-15c0-82.1,40.7-147.1,111.1-188.9,32.7-19.4,68.9-29.2,106.9-29.2h15c40.3,0,77.5,11.5,110.8,34.2l2.7,1.9,1.7,2.9c3.6,6,6.7,12.9,6.7,19.9v7.5c0,19.3-14.5,29.7-31.9,33.1l-1.4.3h-4.5c-11.3,0-37-11.7-47-16.4h0ZM1508.4,1775.8c29.4-29.4,58.9-58.8,88.7-87.8,8.3-8.1,39.8-42.3,52.2-42.3h13.6l1.5.3c17.3,3.6,30.2,14.5,30.2,33.1v7.5c0,12.7-14.8,27.4-23,36-17.4,18.4-35.7,36.3-53.5,54.3l-91.4,92.8c39.4,39.5,78.7,78.9,117.7,118.7,10.8,11,21.6,22,32.2,33.2,3.8,4,9.3,8.9,12.5,14.4,3.4,5.1,5.5,10.9,5.5,17.1v7.8l-.4,1.8c-4.2,17.3-15.2,31.2-34.3,31.2h-6c-12.5,0-26.7-14.2-35.2-22.3-17.7-16.7-34.7-34.2-52.1-51.2l-58.1-57v91.2c0,21-13.1,37.9-34.9,37.9h-6c-21.7,0-34.9-16.9-34.9-37.9v-513.6c0-21,13.1-37.8,34.9-37.8h6c21.7,0,34.9,16.8,34.9,37.8v234.8h0ZM2451.5,1645.8h7.5c22.7,0,37.8,15.3,37.8,37.9s-30,39.3-55.9,39.3-66.4,20.6-89.9,43.7c-29.2,28.8-42,65.7-42,106.2v183.2c0,21-13.1,37.9-34.9,37.9h-6c-21.7,0-34.9-16.8-34.9-37.9v-193.7c0-74.4,36.2-135.1,96.6-177.7,36-25.4,77.3-38.9,121.5-38.9h0ZM1913.7,2008.8c27.5,9.6,58.9,8.2,87.2,3.3,14.5-6.1,51.4-22.3,65-19.9l2.1.4,2,1c8.3,4,16.2,9.7,20.5,18.2,9.9,19.8,5.1,39.7-14.3,50.9l-6.5,3.7c-71.8,41.4-148.1,35.7-219.7-3-34.2-18.5-60.4-45.9-79.7-79.4l-4.5-7.8c-46.1-79.8-39.9-163.8,12.1-239.6,17.9-26.2,41.4-46.5,68.8-62.3l10.4-6c67.6-39,140-36.3,209.5-2.1,37.3,18.4,67.6,45.9,88.4,82l3.8,6.5c15.1,26.2-4.5,49.1-24.7,64.7-23.5,18.1-47.2,39.9-69.7,59.4-50.2,43.3-100.4,86.8-150.5,130.2h0ZM1848.7,1963.2c56.2-48.1,112.3-96.3,168.3-144.7,19.1-16.5,40.1-33.6,59.1-51-15.2-19.2-40.7-33-62.3-41.3-43.7-16.6-86.7-11-126.7,12.1-52.4,30.3-74.7,78.4-72.8,138.4.8,23.6,7.1,46.4,19.7,66.5,4.4,7.1,9.3,13.7,14.7,20.1ZM1440.3,446.8h223.3v228.3h112.9c52.1,0,105.8-9.3,155.1-26,24.3-8.2,51.5-19.7,75.4-34.1-31.5-41.2-47.6-93.1-52.3-144.3-6.4-69.7,7.6-160.4,54.8-214.9l23.5-27.1,28,22.5c70.4,56.6,129.6,135.6,140.1,225.8,84.8-24.9,184.4-19,259.1,24.1l30.7,17.7-16.1,31.5c-63.2,123.4-195.4,161.6-324.6,154.8-193.3,481.5-614.2,709.5-1124.6,709.5s-505.6-98.6-643.3-332.5l-2.3-3.8-20.1-40.8c-46.6-103-62-215.8-51.5-328.5l3.2-33.8h191v-228.3h223.3v-223.3h446.6V.2h268v446.6"/>
  <path class="st6" d="M2163.8,531.3c15-116.4-72.1-207.8-126.1-251.2-62.2,72-71.9,260.5,25.7,339.9-54.5,48.4-169.3,92.3-286.9,92.3H345.4c-11.4,122.7,10.1,235.7,59.3,332.5l16.3,29.8c10.3,17.5,21.6,34.4,33.7,50.6,58.8,3.8,113.1,5.1,162.7,4h0c97.5-2.1,177.1-13.7,237.4-34.6,9.1-2.8,18.7,2.2,21.5,11.3,2.7,8.7-1.8,17.9-10.3,21.2-8,2.8-16.4,5.4-25,7.9h0c-47.5,13.6-98.4,22.7-164.1,26.7,3.9,0-4.1.6-4.1.6-2.2.1-5,.5-7.3.6-25.9,1.5-53.8,1.8-82.3,1.8s-61.9-.6-96.3-2.3l-.9.6c119.2,134,305.7,214.4,539.4,214.4,494.6,0,914.1-219.3,1099.9-711.5,131.8,13.5,258.5-20.1,316.1-132.6-91.8-53-209.8-36.1-277.8-1.9"/>
  <path class="st1" d="M2163.8,531.3c15-116.4-72.1-207.8-126.1-251.2-62.2,72-71.9,260.5,25.7,339.9-54.5,48.4-169.3,92.3-286.9,92.3H430.2c-5.8,187.9,63.9,330.6,187.3,416.9h0c97.5-2.1,177.1-13.7,237.4-34.6,9.1-2.8,18.7,2.2,21.5,11.3,2.7,8.7-1.8,17.9-10.3,21.2-8,2.8-16.4,5.4-25,7.9h0c-47.5,13.6-102.8,23.9-168.5,27.9,0,0-1.6-1.5-1.6-1.5,168.3,86.3,412.4,86,692.2-21.5,313.8-120.5,605.8-350.2,809.5-612.9-3.1,1.4-6.1,2.8-9,4.3"/>
  <path class="st4" d="M348.1,861.4c8.9,65.7,28.1,127.3,56.6,183.4l16.3,29.8c10.3,17.5,21.6,34.4,33.7,50.6,58.8,3.8,113.1,5.1,162.7,4,97.5-2.1,177.1-13.7,237.4-34.6,9.1-2.8,18.7,2.2,21.5,11.3,2.7,8.7-1.8,17.9-10.3,21.2-8,2.8-16.4,5.4-25,7.9h0c-47.5,13.6-102.5,23.3-168.2,27.3-2.3.1-6.2.2-8.5.3-25.8,1.4-53.5,2.3-82,2.3s-63.1-.6-97.5-2.3c119.2,134,306.8,214.7,540.5,214.7,423.4,0,791.8-160.7,1005.7-515.8H348.1"/>
  <path class="st0" d="M443,861.4c25.3,115.4,86.1,206,174.5,267.8,97.5-2.1,177.1-13.7,237.4-34.6,9.1-2.8,18.7,2.2,21.5,11.3,2.7,8.7-1.8,17.9-10.3,21.2-8,2.8-16.4,5.4-25,7.9h0c-47.5,13.6-103.7,23.3-169.4,27.3,168.3,86.3,411.7,85.1,691.5-22.4,169.3-65,332.2-161.9,478.4-278.5H443"/>
  <path class="st7" d="M539.6,484h193.5v193.5h-193.5v-193.5ZM555.8,500.1h15.3v161.3h-15.3v-161.3ZM584.5,500.1h15.9v161.3h-15.9v-161.3h0ZM613.8,500.1h15.9v161.3h-15.9v-161.3ZM643.1,500.1h15.9v161.3h-15.9v-161.3ZM672.5,500.1h15.9v161.3h-15.9v-161.3h0ZM701.8,500.1h15.3v161.3h-15.3v-161.3ZM762.9,260.7h193.5v193.5h-193.6v-193.5h0ZM779.1,276.8h15.3v161.3h-15.3v-161.3ZM807.8,276.8h15.9v161.3h-15.9v-161.3h0ZM837.1,276.8h15.9v161.3h-15.9v-161.3ZM866.4,276.8h15.9v161.3h-15.9v-161.3ZM895.8,276.8h15.9v161.3h-15.9v-161.3ZM925.1,276.8h15.3v161.3h-15.3v-161.3Z"/>
  <path class="st5" d="M762.9,484h193.5v193.5h-193.6v-193.5h0ZM779.1,500.1h15.3v161.3h-15.3v-161.3ZM807.8,500.1h15.9v161.3h-15.9v-161.3h0ZM837.1,500.1h15.9v161.3h-15.9v-161.3ZM866.4,500.1h15.9v161.3h-15.9v-161.3ZM895.8,500.1h15.9v161.3h-15.9v-161.3ZM925.1,500.1h15.3v161.3h-15.3v-161.3Z"/>
  <path class="st7" d="M986.3,484h193.5v193.5h-193.5v-193.5ZM1002.4,500.1h15.3v161.3h-15.3v-161.3ZM1031.1,500.1h15.9v161.3h-15.9v-161.3ZM1060.4,500.1h15.9v161.3h-15.9v-161.3ZM1089.7,500.1h15.9v161.3h-15.9v-161.3ZM1119.1,500.1h15.9v161.3h-15.9v-161.3ZM1148.4,500.1h15.3v161.3h-15.3v-161.3Z"/>
  <path class="st5" d="M986.3,260.7h193.5v193.5h-193.5v-193.5ZM1002.4,276.8h15.3v161.3h-15.3v-161.3ZM1031.1,276.8h15.9v161.3h-15.9v-161.3ZM1060.4,276.8h15.9v161.3h-15.9v-161.3ZM1089.7,276.8h15.9v161.3h-15.9v-161.3ZM1119.1,276.8h15.9v161.3h-15.9v-161.3ZM1148.4,276.8h15.3v161.3h-15.3v-161.3ZM1209.6,484h193.5v193.5h-193.5v-193.5ZM1225.7,500.1h15.3v161.3h-15.3v-161.3ZM1254.4,500.1h15.9v161.3h-15.9v-161.3ZM1283.7,500.1h15.9v161.3h-15.9v-161.3ZM1313,500.1h15.9v161.3h-15.9v-161.3ZM1342.4,500.1h15.9v161.3h-15.9v-161.3ZM1371.7,500.1h15.3v161.3h-15.3v-161.3Z"/>
  <path class="st7" d="M1209.6,260.7h193.5v193.5h-193.5v-193.5ZM1225.7,276.8h15.3v161.3h-15.3v-161.3ZM1254.4,276.8h15.9v161.3h-15.9v-161.3ZM1283.7,276.8h15.9v161.3h-15.9v-161.3ZM1313,276.8h15.9v161.3h-15.9v-161.3ZM1342.4,276.8h15.9v161.3h-15.9v-161.3ZM1371.7,276.8h15.3v161.3h-15.3v-161.3Z"/>
  <path class="st5" d="M1209.6,37.4h193.5v193.6h-193.5V37.4ZM1225.7,53.5h15.3v161.3h-15.3V53.5h0ZM1254.4,53.5h15.9v161.3h-15.9V53.5h0ZM1283.7,53.5h15.9v161.3h-15.9V53.5h0ZM1313,53.5h15.9v161.3h-15.9V53.5h0ZM1342.4,53.5h15.9v161.3h-15.9V53.5h0ZM1371.7,53.5h15.3v161.3h-15.3V53.5h0Z"/>
  <path class="st7" d="M1432.9,484h193.5v193.5h-193.5v-193.5ZM1449,500.1h15.3v161.3h-15.3v-161.3h0ZM1477.7,500.1h15.9v161.3h-15.9v-161.3h0ZM1507,500.1h15.9v161.3h-15.9v-161.3ZM1536.3,500.1h15.9v161.3h-15.9v-161.3ZM1565.7,500.1h15.9v161.3h-15.9v-161.3ZM1595,500.1h15.3v161.3h-15.3v-161.3Z"/>
  <path class="st8" d="M944.4,991.3c29.5-.4,53.7,23.2,54.1,52.7.4,29.5-23.2,53.7-52.7,54.1-.5,0-1,0-1.4,0-29.5-.4-53.1-24.6-52.7-54.1.4-28.9,23.8-52.3,52.7-52.7"/>
  <path class="st2" d="M944.4,1006.5c4.9,0,9.5.9,13.8,2.6-7.5,4.3-10,13.9-5.7,21.3,2.8,4.8,7.9,7.8,13.5,7.8,5.9,0,11-3.3,13.7-8.1,8.1,19.5-1.2,41.9-20.7,50-19.5,8.1-41.9-1.2-50-20.7-8.1-19.5,1.2-41.9,20.7-50,4.6-1.9,9.6-2.9,14.6-2.9M0,880.7h2483.7c-54.1-13.7-171.1-32.2-151.8-103.1-98.3,113.8-335.5,79.8-395.3,23.7-66.6,96.7-454.6,59.9-481.7-15.4-83.6,98.1-342.5,98.1-426,0-27.1,75.3-415.1,112.1-481.7,15.4-59.8,56.1-297,90.1-395.3-23.7,19.3,70.9-97.7,89.4-151.8,103.1"/>
  <path class="st3" d="M1086.3,1376.1c-132.2-62.7-204.8-148-245.2-241.2-49.1,14-108.2,23-176.8,26.8-25.8,1.4-53,2.2-81.5,2.2s-67.5-1-103.9-2.9c121.3,121.2,270.4,214.5,546.6,216.2,20.4,0,40.6-.4,60.8-1.2"/>
  <path class="st8" d="M890.2,1220.8c-18.3-24.8-36-56-49.1-85.9-49.1,14-108.2,23-176.8,26.9,47.1,25.6,114.5,49.3,225.9,59.1"/>
</svg>